<mxfile host="65bd71144e">
    <diagram id="JPP_opHUTbKs26bMGrwG" name="Page-1">
        <mxGraphModel dx="855" dy="877" grid="1" gridSize="10" guides="1" tooltips="1" connect="1" arrows="1" fold="1" page="1" pageScale="1" pageWidth="850" pageHeight="1100" math="0" shadow="0">
            <root>
                <mxCell id="0"/>
                <mxCell id="1" parent="0"/>
                <mxCell id="2" value="T" style="text;html=1;strokeColor=none;fillColor=none;align=center;verticalAlign=middle;whiteSpace=wrap;rounded=0;fontSize=30;" parent="1" vertex="1">
                    <mxGeometry x="280" y="250" width="40" height="30" as="geometry"/>
                </mxCell>
                <mxCell id="3" value="(x&lt;sub&gt;&lt;font style=&quot;font-size: 20px&quot;&gt;1&lt;/font&gt;&lt;/sub&gt;, ..., x&lt;sub&gt;&lt;font style=&quot;font-size: 20px&quot;&gt;n&lt;/font&gt;&lt;/sub&gt;)" style="text;html=1;strokeColor=none;fillColor=none;align=center;verticalAlign=middle;whiteSpace=wrap;rounded=0;fontSize=30;" parent="1" vertex="1">
                    <mxGeometry x="310" y="250" width="150" height="30" as="geometry"/>
                </mxCell>
                <mxCell id="5" value="=" style="text;html=1;strokeColor=none;fillColor=none;align=center;verticalAlign=middle;whiteSpace=wrap;rounded=0;fontSize=30;" parent="1" vertex="1">
                    <mxGeometry x="450" y="250" width="50" height="30" as="geometry"/>
                </mxCell>
                <mxCell id="8" value="θ" style="text;html=1;strokeColor=none;fillColor=none;align=center;verticalAlign=middle;whiteSpace=wrap;rounded=0;fontSize=30;" parent="1" vertex="1">
                    <mxGeometry x="490" y="250" width="30" height="30" as="geometry"/>
                </mxCell>
                <mxCell id="9" value="^" style="text;html=1;strokeColor=none;fillColor=none;align=center;verticalAlign=middle;whiteSpace=wrap;rounded=0;fontSize=20;" parent="1" vertex="1">
                    <mxGeometry x="480" y="240" width="50" height="20" as="geometry"/>
                </mxCell>
                <mxCell id="18" style="edgeStyle=none;html=1;exitX=0.5;exitY=1;exitDx=0;exitDy=0;fontSize=15;" parent="1" source="10" edge="1">
                    <mxGeometry relative="1" as="geometry">
                        <mxPoint x="505" y="230" as="targetPoint"/>
                    </mxGeometry>
                </mxCell>
                <mxCell id="10" value="estimate" style="text;html=1;strokeColor=none;fillColor=none;align=center;verticalAlign=middle;whiteSpace=wrap;rounded=0;fontSize=15;" parent="1" vertex="1">
                    <mxGeometry x="475" y="185" width="60" height="20" as="geometry"/>
                </mxCell>
                <mxCell id="11" value="sample" style="text;html=1;strokeColor=none;fillColor=none;align=center;verticalAlign=middle;whiteSpace=wrap;rounded=0;fontSize=15;" parent="1" vertex="1">
                    <mxGeometry x="355" y="200" width="60" height="20" as="geometry"/>
                </mxCell>
                <mxCell id="12" value="" style="shape=curlyBracket;whiteSpace=wrap;html=1;rounded=1;flipH=1;fontSize=20;rotation=-90;" parent="1" vertex="1">
                    <mxGeometry x="375" y="170" width="20" height="120" as="geometry"/>
                </mxCell>
                <mxCell id="17" style="edgeStyle=none;html=1;exitX=0.5;exitY=0;exitDx=0;exitDy=0;fontSize=15;" parent="1" source="13" edge="1">
                    <mxGeometry relative="1" as="geometry">
                        <mxPoint x="425.20000000000005" y="290" as="targetPoint"/>
                    </mxGeometry>
                </mxCell>
                <mxCell id="13" value="observation" style="text;html=1;strokeColor=none;fillColor=none;align=center;verticalAlign=middle;whiteSpace=wrap;rounded=0;fontSize=15;" parent="1" vertex="1">
                    <mxGeometry x="395" y="310" width="60" height="10" as="geometry"/>
                </mxCell>
                <mxCell id="16" value="T ~ P&lt;sub&gt;&lt;font style=&quot;font-size: 20px&quot;&gt;T|θ&lt;/font&gt;&lt;/sub&gt;" style="text;html=1;strokeColor=none;fillColor=none;align=center;verticalAlign=middle;whiteSpace=wrap;rounded=0;fontSize=30;" parent="1" vertex="1">
                    <mxGeometry x="127.5" y="360" width="125" height="30" as="geometry"/>
                </mxCell>
                <mxCell id="19" value="distribution of population" style="text;html=1;strokeColor=none;fillColor=none;align=center;verticalAlign=middle;whiteSpace=wrap;rounded=0;fontSize=15;" parent="1" vertex="1">
                    <mxGeometry x="145.5" y="430" width="110" height="30" as="geometry"/>
                </mxCell>
                <mxCell id="22" style="edgeStyle=none;html=1;exitX=1;exitY=0.5;exitDx=0;exitDy=0;entryX=-0.033;entryY=0.499;entryDx=0;entryDy=0;entryPerimeter=0;fontSize=15;" parent="1" source="20" target="2" edge="1">
                    <mxGeometry relative="1" as="geometry"/>
                </mxCell>
                <mxCell id="20" value="Estimator" style="text;html=1;strokeColor=none;fillColor=none;align=center;verticalAlign=middle;whiteSpace=wrap;rounded=0;fontSize=15;" parent="1" vertex="1">
                    <mxGeometry x="180" y="260" width="70" height="10" as="geometry"/>
                </mxCell>
                <mxCell id="23" style="edgeStyle=none;html=1;fontSize=15;" parent="1" edge="1">
                    <mxGeometry relative="1" as="geometry">
                        <mxPoint x="232.5" y="370" as="targetPoint"/>
                        <mxPoint x="232.5" y="340" as="sourcePoint"/>
                    </mxGeometry>
                </mxCell>
                <mxCell id="21" value="true parameter for population distribution" style="text;html=1;strokeColor=none;fillColor=none;align=center;verticalAlign=middle;whiteSpace=wrap;rounded=0;fontSize=15;" parent="1" vertex="1">
                    <mxGeometry x="142.5" y="310" width="160" height="10" as="geometry"/>
                </mxCell>
                <mxCell id="24" value="" style="endArrow=classic;html=1;fontSize=15;exitX=0.5;exitY=0;exitDx=0;exitDy=0;" parent="1" source="19" edge="1">
                    <mxGeometry width="50" height="50" relative="1" as="geometry">
                        <mxPoint x="200.5" y="430" as="sourcePoint"/>
                        <mxPoint x="200.5" y="400" as="targetPoint"/>
                    </mxGeometry>
                </mxCell>
                <mxCell id="27" value="T ~ P&lt;sub&gt;&lt;font style=&quot;font-size: 20px&quot;&gt;T|θ&lt;/font&gt;&lt;/sub&gt;" style="text;html=1;strokeColor=none;fillColor=none;align=center;verticalAlign=middle;whiteSpace=wrap;rounded=0;fontSize=30;" vertex="1" parent="1">
                    <mxGeometry x="375" y="355" width="125" height="30" as="geometry"/>
                </mxCell>
                <mxCell id="28" value="approximate sampling distribution" style="text;html=1;strokeColor=none;fillColor=none;align=center;verticalAlign=middle;whiteSpace=wrap;rounded=0;fontSize=15;" vertex="1" parent="1">
                    <mxGeometry x="380" y="410" width="140" height="40" as="geometry"/>
                </mxCell>
                <mxCell id="31" value="" style="endArrow=classic;html=1;fontSize=15;exitX=0.5;exitY=0;exitDx=0;exitDy=0;" edge="1" parent="1" source="28">
                    <mxGeometry width="50" height="50" relative="1" as="geometry">
                        <mxPoint x="458" y="415" as="sourcePoint"/>
                        <mxPoint x="450" y="385" as="targetPoint"/>
                    </mxGeometry>
                </mxCell>
                <mxCell id="32" value="^" style="text;html=1;strokeColor=none;fillColor=none;align=center;verticalAlign=middle;whiteSpace=wrap;rounded=0;fontSize=20;" vertex="1" parent="1">
                    <mxGeometry x="457" y="356" width="50" height="20" as="geometry"/>
                </mxCell>
                <mxCell id="33" value="σ&lt;sup&gt;&lt;font style=&quot;font-size: 20px&quot;&gt;2&lt;/font&gt;&lt;/sup&gt;" style="text;html=1;strokeColor=none;fillColor=none;align=center;verticalAlign=middle;whiteSpace=wrap;rounded=0;fontSize=30;" vertex="1" parent="1">
                    <mxGeometry x="570" y="356" width="30" height="30" as="geometry"/>
                </mxCell>
                <mxCell id="34" value="^" style="text;html=1;strokeColor=none;fillColor=none;align=center;verticalAlign=middle;whiteSpace=wrap;rounded=0;fontSize=20;" vertex="1" parent="1">
                    <mxGeometry x="555" y="350" width="50" height="20" as="geometry"/>
                </mxCell>
                <mxCell id="35" value="+" style="text;html=1;strokeColor=none;fillColor=none;align=center;verticalAlign=middle;whiteSpace=wrap;rounded=0;fontSize=30;" vertex="1" parent="1">
                    <mxGeometry x="520" y="245" width="30" height="30" as="geometry"/>
                </mxCell>
                <mxCell id="36" value="-" style="text;html=1;strokeColor=none;fillColor=none;align=center;verticalAlign=middle;whiteSpace=wrap;rounded=0;fontSize=30;" vertex="1" parent="1">
                    <mxGeometry x="520" y="255" width="30" height="30" as="geometry"/>
                </mxCell>
                <mxCell id="37" value="uncertainty" style="text;html=1;strokeColor=none;fillColor=none;align=center;verticalAlign=middle;whiteSpace=wrap;rounded=0;fontSize=15;" vertex="1" parent="1">
                    <mxGeometry x="550" y="255" width="60" height="20" as="geometry"/>
                </mxCell>
                <mxCell id="38" style="edgeStyle=none;html=1;fontSize=15;" edge="1" parent="1">
                    <mxGeometry relative="1" as="geometry">
                        <mxPoint x="505" y="375" as="sourcePoint"/>
                        <mxPoint x="560" y="375" as="targetPoint"/>
                    </mxGeometry>
                </mxCell>
                <mxCell id="39" style="edgeStyle=none;html=1;fontSize=15;" edge="1" parent="1">
                    <mxGeometry relative="1" as="geometry">
                        <mxPoint x="579.76" y="335" as="sourcePoint"/>
                        <mxPoint x="579.76" y="285" as="targetPoint"/>
                    </mxGeometry>
                </mxCell>
                <mxCell id="41" style="edgeStyle=none;html=1;exitX=0;exitY=0.5;exitDx=0;exitDy=0;fontSize=20;" edge="1" parent="1" source="40">
                    <mxGeometry relative="1" as="geometry">
                        <mxPoint x="610" y="375.2758620689656" as="targetPoint"/>
                    </mxGeometry>
                </mxCell>
                <mxCell id="40" value="estimate&lt;br&gt;variance" style="text;html=1;strokeColor=none;fillColor=none;align=center;verticalAlign=middle;whiteSpace=wrap;rounded=0;fontSize=15;" vertex="1" parent="1">
                    <mxGeometry x="660" y="355" width="70" height="40" as="geometry"/>
                </mxCell>
            </root>
        </mxGraphModel>
    </diagram>
</mxfile>